<svg id="Layer_1" data-name="Layer 1" xmlns="http://www.w3.org/2000/svg" viewBox="0 0 1080 1080"><defs><style>.cls-1,.cls-3{fill:#b3b3b3;}.cls-2{fill:#fff;}.cls-3{stroke:#b3b3b3;stroke-linecap:round;stroke-linejoin:round;stroke-width:17.8px;}</style></defs><title>RedirectIcon</title><path class="cls-1" d="M474.08,316,781,622.92V994H103V316H474.08m21.54-52H63a12,12,0,0,0-12,12v758a12,12,0,0,0,12,12H821a12,12,0,0,0,12-12V601.38L495.62,264Z"/><rect class="cls-2" x="413.5" y="266.5" width="426" height="361"/><path class="cls-2" d="M829,277V617H424V277H829m21-21H403V638H850V256Z"/><polygon class="cls-3" points="282.45 581.67 582.57 286.63 496.94 201 842 201 842 528.25 752.56 438.81 438.87 752.5 273.97 587.6 282.45 581.67"/></svg>